  <svg id="logo" width="100" height="100" xmlns="http://www.w3.org/2000/svg"> 
    <desc>HARMONIC OSCILLATOR Company Logo // Hand-coded by ANZOL</desc> 
	<polygon points="0,30 50,0 50,100 0,80" fill="#AA3090" stroke="none" stroke-width="1"/> 
    <path d="M-1,50 C0,90 10,90 10,50 M10,50 C 10,20 20,20 20,50 M20,50 C20,80 30,80 30,50 M30,50 C30,30 40,30 40,50 M40,50 C40,60 50,60 50,50;" fill="none" stroke="#000" stroke-width="1"/>
	<polygon points="50,0 100,30 100,80 50,100" fill="#000" stroke="#AA3090" stroke-width="1"/> 
	<path d="M50,0 50,100;" fill="none" stroke="#AA3090" stroke-width="1"/> 
	<ellipse cx="70" cy="53" rx="4" ry="10" fill="#AA3090" stroke="#AA3090" stroke-width="1"/>
	<ellipse cx="82" cy="40" rx="20" ry="10" transform="rotate(10)" fill="none" stroke="#AA3090" stroke-width="1"/>
  </svg>